<svg xmlns="http://www.w3.org/2000/svg" width="348" height="189" fill="none"><path fill="#C73047" d="M344.512 17.869c2.545 1.055 3.758 3.986 2.712 6.534a5.01 5.01 0 0 1-6.533 2.712L310.577 14.65l-.181 1.476c-.009.077.001.146 0 .195l1.069 1.439 1.163 1.509a14.4 14.4 0 0 1 2.503 5.057l.506 1.797.482 1.829c.195.706.485 1.408.913 2.102l1.045 1.665 1.014 1.642a26 26 0 0 1 2.105 4.22l1.403 3.595c.752 1.934 1.003 3.967.799 6.025l-.197 1.953-.174 1.921c-.056.568.017 1.1.202 1.618l.623 1.836.678 1.829a11.5 11.5 0 0 1 .369 6.532l-.91 3.811a8.3 8.3 0 0 0-.197 2.344l.199 3.766c.074 1.344.131 2.698.129 4.054l-.019 3.797c-.002 1.958-.425 3.848-1.208 5.64l-.752 1.78-.783 1.757c-.142.324-.221.696-.165 1.195l.233 2.032.256 2c.281 2.45-.274 4.827-1.64 6.928l-1.048 1.656-1.08 1.631a17.3 17.3 0 0 0-1.385 2.624l-.76 1.726-.736 1.695c-.603 1.406-1.297 2.781-2.128 4.068l-2.066 3.139c-.37.572-.634 1.245-.83 2.014l-.509 1.914-.455 1.906c-.579 2.282-1.837 4.244-3.646 5.762l-2.987 2.544a27 27 0 0 0-2.338 2.201l-1.314 1.358-1.259 1.351a35 35 0 0 1-3.175 2.989l-1.423 1.178-1.477 1.186c-.91.752-1.785 1.532-2.659 2.302l-1.415 1.234-1.36 1.225c-.894.788-1.794 1.578-2.675 2.388l-1.384 1.256-1.329 1.249a26 26 0 0 0-2.213 2.295l-2.487 2.92q-1.215 1.433-2.456 2.943l-1.283 1.576-1.259 1.546c-1.503 1.825-3.48 3.067-5.785 3.667l-1.906.521-1.884.491c-1.68.437-3.416.633-5.18.651l-2.086.045-2.062.014c-.77.008-1.317.169-1.735.357l-1.681.741-1.703.772a16 16 0 0 0-2.478 1.412l-1.579 1.061-1.548 1.084a12.24 12.24 0 0 1-5.893 2.12l-1.906.131-1.899.185a4.4 4.4 0 0 0-1.688.491l-3.377 1.762a12.55 12.55 0 0 1-5.931 1.456l-1.898-.01-1.922.022c-.648-.002-1.238.089-1.797.311l-3.486 1.387a17.1 17.1 0 0 1-5.134 1.175l-3.703.246c-.674.048-1.355.226-2.047.514l-1.79.756-1.766.725a14.3 14.3 0 0 1-5.673 1.112l-1.868.014-1.875-.041a31.4 31.4 0 0 1-4.46-.371l-3.765-.582c-.302-.047-.628-.018-1.039.147l-3.689 1.528a12.74 12.74 0 0 1-6.118.924l-3.734-.363a16 16 0 0 0-2.844.013l-3.75.309c-1.749.151-3.52.047-5.235-.317l-1.843-.408-1.836-.353a5.2 5.2 0 0 0-1.96-.057l-3.923.668a15.4 15.4 0 0 1-5.656-.146l-1.867-.376-1.898-.401a13.75 13.75 0 0 1-5.459-2.489l-3.185-2.394c-.719-.54-1.434-.948-2.155-1.228l-1.773-.697-1.765-.643a72 72 0 0 1-3.889-1.652l-1.882-.876-1.851-.854c-2.508-1.148-4.328-3.155-5.197-5.762l-1.278-3.892a59 59 0 0 0-1.239-3.423l-.717-1.712-.725-1.766a62 62 0 0 1-1.379-3.822l-1.169-3.516c-.202-.606-.54-1.274-1.06-1.97l-1.233-1.611-1.21-1.642c-1.792-2.4-2.256-5.276-1.398-8.087l.211-.671c-.936-.206-1.864-.507-2.74-1.034l-3.296-1.988c-.271-.163-.623-.278-1.156-.282l-2.039-.018-2.094-.009c-2.037-.014-4.019-.423-5.874-1.287l-3.53-1.675c-2.447-1.147-4.12-3.109-5.096-5.443l-.873-2.024-.701-1.797-1.617-.385-2.023-.494c-3.147-.792-5.335-3.033-6.213-6.037l-.63-2.086-.491-1.884-1.57-.642-1.898-.791a21.8 21.8 0 0 1-4.458-2.519l-1.554-1.119-1.53-1.15c-2.309-1.696-3.529-4.156-3.861-6.761l-.256-2.196-.21-1.477-1.272-.516-2.039-.8c-2.535-1.009-4.587-2.923-5.549-5.684l-.623-1.837-.655-1.86a22 22 0 0 0-1.216-2.868l-.904-1.657-.882-1.689a49 49 0 0 1-1.77-3.822l-.725-1.766-.748-1.735c-.01-.028-.053-.156-.414-.36L23.3 69.81l-1.82-1.025c-2.712-1.533-4.342-4.14-4.516-7.255l-.108-2.133-.13-2.101-.04-.274-1.342-1.4-1.334-1.344a22 22 0 0 0-2.451-2.136l-3.28-2.464c-2.449-1.84-3.672-4.533-3.602-7.495l.114-4.312c-.006.247.088.242-.07-.102-.163-.351-.535-.896-1.155-1.65l-2.396-2.924-.273-.352-.226-.414-.04-.078a5.007 5.007 0 0 1 1.937-6.803c2.16-1.194 4.747-.547 6.24 1.319l.079-.04 2.427 2.948c1.836 2.234 3.557 5.125 3.476 8.378l-.033 2.125-.064 1.711 2.873 2.16a31.5 31.5 0 0 1 3.567 3.12l1.366 1.368 1.343 1.4c1.83 1.871 2.738 4.218 2.876 6.706l.131 2.101.07 1.47 1.31.79 1.851 1.048c2.084 1.177 3.798 2.918 4.761 5.239l.694 1.743.725 1.766c.43 1.038.921 2.046 1.434 3.033l.882 1.688.85 1.665a31.5 31.5 0 0 1 1.793 4.181l.654 1.86.553 1.54 1.922.76 2.014.83 2 1.11c.618.452 1.209.977 1.709 1.627a8.5 8.5 0 0 1 1.162 2.095l.56 2.18.256 2.196.287 2.219.008.055 1.374 1.032 1.585 1.142c.703.515 1.497.984 2.397 1.362l1.866.767 1.898.791 1.85 1.049a9 9 0 0 1 2.7 3.104l.749 1.93.63 2.087.39 1.367 1.305.345 2 .526 2.092.791c1.903 1.005 3.327 2.627 4.175 4.652l.85 2.055.842 2.001c.043.102.09.191.117.235l.031.023 1.71.846 1.789.806a4.1 4.1 0 0 0 1.726.369l2.039.017 2.062-.013c2.205.013 4.327.604 6.249 1.763l.359.172c-.005-.919.011-1.846.221-2.765l.463-1.851.408-1.844c.206-.897.3-1.801.315-2.695l.082-3.749c.025-1.577.199-3.137.535-4.68l.816-3.686a25.6 25.6 0 0 1 1.38-4.437l1.456-3.498c.461-1.099.956-2.276 1.425-3.522l1.457-3.89c.53-1.407 1.417-2.758 2.784-3.77 1.361-1.003 2.909-1.436 4.354-1.567l2.172-.224 2.179-.17c1.117-.1 2.016-.335 2.735-.583l1.759-.585 1.727-.607c2.229-.771 4.541-.777 6.734-.12l1.898.596 1.922.565c2.072.625 3.896 1.736 5.426 3.247l1.491 1.462 1.436 1.47c1.885 1.864 2.937 4.249 3.017 6.91l.137 4.109c.044 1.485.018 2.92-.059 4.305l-.095 1.882-.104 1.828a11.1 11.1 0 0 1-2.208 6.061l-1.103 1.468-1.072 1.491c-.147.198-.323.485-.384 1.031l-.426 4.077c-.155 1.405-.658 2.891-1.691 4.202-1.046 1.324-2.398 2.167-3.784 2.629l-1.867.6-1.86.654a2.15 2.15 0 0 0-.993.671l-1.338 1.585-1.345 1.53c-1.425 1.656-3.187 2.915-5.253 3.675l-1.829.678-1.884.686c-2.916 1.07-5.772.486-8.139-.938l-1.804-1.111-.572 1.867-.509 1.523.936 1.29 1.209 1.642c1.101 1.473 1.978 3.072 2.551 4.799l1.168 3.516c.351 1.06.751 2.127 1.177 3.181l.725 1.767.693 1.742a68 68 0 0 1 1.458 3.978l.67 1.97.592 1.813 1.765.837 1.85.854c1.156.527 2.278.978 3.351 1.393l1.772.697 1.742.674a19.2 19.2 0 0 1 4.576 2.559l3.185 2.394a3.8 3.8 0 0 0 1.523.704l1.867.377 1.843.408c.624.13 1.315.136 2.039.017l1.938-.303 1.961-.334a15.4 15.4 0 0 1 5.68.115l1.843.408 1.812.385a7.8 7.8 0 0 0 2.281.15l1.899-.186 1.875-.154a25.6 25.6 0 0 1 4.664.036l3.734.362c.377.036.79-.03 1.305-.241l3.689-1.527a11.84 11.84 0 0 1 6.391-.768l3.765.582c1.018.157 2.037.226 3.047.237l1.898.01 1.875.041a4.2 4.2 0 0 0 1.68-.35l1.767-.725 1.789-.756c1.668-.699 3.406-1.142 5.205-1.269l1.851-.123 1.876-.155a6.9 6.9 0 0 0 2.109-.467l3.486-1.387a14.8 14.8 0 0 1 5.54-1.065l1.93.033 1.898.01c.469.001.879-.116 1.266-.32l1.665-.85 1.657-.904c1.71-.9 3.57-1.42 5.494-1.589l1.898-.186 1.93-.162a2.2 2.2 0 0 0 1.087-.405l1.579-1.061 1.548-1.085a26.3 26.3 0 0 1 4.056-2.277l1.65-.764 1.703-.772c1.819-.818 3.764-1.184 5.744-1.205l2.062-.014 2.086-.045c.987-.01 1.897-.115 2.743-.333l1.938-.499 1.883-.49c.226-.059.396-.159.586-.39l2.519-3.091c.86-1.046 1.735-2.049 2.581-3.045l1.243-1.46 1.236-1.514a36 36 0 0 1 3.042-3.138l1.384-1.256 1.329-1.249c.935-.86 1.898-1.716 2.847-2.552l1.36-1.226 1.392-1.201c.963-.85 1.963-1.687 2.963-2.513l1.423-1.179 1.447-1.209a25 25 0 0 0 2.267-2.107l1.283-1.382 1.259-1.35a37 37 0 0 1 3.198-3.021l1.525-1.248 1.493-1.272c.186-.157.27-.316.336-.578l.487-1.883.478-1.937a16.7 16.7 0 0 1 2.169-4.966l1.032-1.57 1.002-1.593c.524-.812.989-1.652 1.369-2.537l.729-1.75.736-1.694a27.6 27.6 0 0 1 2.23-4.139l1.048-1.655 1.08-1.632c.042-.067.037-.108.039-.117.005-.022.039-.096.024-.227l-.256-2-.201-2.008c-.252-2.173.024-4.323.912-6.35l.783-1.757.752-1.781c.241-.551.35-1.082.353-1.64l.019-3.797a64 64 0 0 0-.106-3.5l-.2-3.766a18.3 18.3 0 0 1 .466-5.172l.91-3.811c.074-.324.033-.586-.07-.883l-.654-1.86-.647-1.805a13.7 13.7 0 0 1-.737-5.978l.198-1.953.173-1.921a2.95 2.95 0 0 0-.17-1.399l-1.403-3.595a16.4 16.4 0 0 0-1.295-2.634l-2.028-3.283c-.919-1.49-1.641-3.073-2.097-4.752l-.451-1.805-.506-1.798a4.4 4.4 0 0 0-.78-1.563l-2.325-3.018a9.4 9.4 0 0 1-1.654-3.392l-12.309 29.84a4.98 4.98 0 0 1-6.51 2.682 5.004 5.004 0 0 1-2.713-6.534l17.172-41.578c.304-.733.802-1.321 1.361-1.811l.243-.258.508-.35.18-.11 2.008-.787a5.3 5.3 0 0 1 1.445-.038c.647.08 1.145.26 1.391.36.505.21.915.462 1.116.596.352.233.696.55 1.039.829zm-215.47 75.798-1.898-.596-1.89-.54c-.328-.1-.463-.066-.562-.032l-1.759.584-1.75.639c-1.609.556-3.344.874-5.126 1.034l-2.149.194-1.242.092-.337.968-.752 1.976a112 112 0 0 1-1.519 3.843l-.76 1.726-.728 1.749c-.37.882-.667 1.791-.869 2.718l-.385 1.812-.408 1.843a14 14 0 0 0-.307 2.75l-.041 1.875-.017 1.844a23.3 23.3 0 0 1-.575 4.796l-.439 1.82-.408 1.843c-.029.126.005.269-.001.391 1.443.166 2.812.688 4.054 1.433l1.983 1.198 1.921 1.15 1.516-.522 1.829-.678a2.7 2.7 0 0 0 1.141-.804l1.314-1.553 1.369-1.561c1.452-1.686 3.259-2.955 5.394-3.667l1.867-.6.688-.265.079-.82.213-2.039c.233-2.141.989-4.163 2.31-5.936l1.072-1.491 1.103-1.467c.144-.194.228-.385.243-.649l.103-1.828.095-1.882c.06-1.069.079-2.214.043-3.438l-.045-2.086-.069-2.055c-.002-.003-.005-.043-.039-.078l-1.491-1.462-1.459-1.439a3.1 3.1 0 0 0-1.312-.79"/></svg>